<?xml version="1.0" encoding="utf-8"?>
<!-- Generator: Adobe Illustrator 16.0.0, SVG Export Plug-In . SVG Version: 6.00 Build 0)  -->
<!DOCTYPE svg PUBLIC "-//W3C//DTD SVG 1.1//EN" "http://www.w3.org/Graphics/SVG/1.1/DTD/svg11.dtd">
<svg version="1.1" id="Layer_1" xmlns="http://www.w3.org/2000/svg" xmlns:xlink="http://www.w3.org/1999/xlink" x="0px" y="0px"
	 width="255.005px" height="290.324px" viewBox="0 0 255.005 290.324" enable-background="new 0 0 255.005 290.324"
	 xml:space="preserve">
<g>
	<path fill="#16233F" d="M189.524,176.852v-63.367l-54.643,31.735L189.524,176.852"/>
	<path fill="#02AEDE" d="M185.989,107.302l-54.737-31.651v63.378L185.989,107.302"/>
	<path fill="#02AEDE" d="M124.137,139.027V75.649L69.36,107.3L124.137,139.027"/>
	<path fill="#02AEDE" d="M120.597,69.568L65.871,37.733v63.472L120.597,69.568"/>
	<path fill="#16233F" d="M185.989,182.941l-54.737-31.625v63.369L185.989,182.941"/>
	<path fill="#16233F" d="M124.137,214.686v-63.371l-54.777,31.629L124.137,214.686"/>
	<path fill="#02AEDE" d="M251.457,145.219l-54.817-31.731v63.362L251.457,145.219"/>
	<path fill="#02AEDE" d="M58.743,101.205V37.733L3.607,69.568L58.743,101.205"/>
	<path fill="#16233F" d="M120.597,220.775l-54.726-31.721v63.451L120.597,220.775"/>
	<path fill="#02AEDE" d="M58.743,252.508v-63.449L3.607,220.777L58.743,252.508"/>
	<path fill="#16233F" d="M120.597,145.219l-54.726-31.731v63.362L120.597,145.219"/>
	<path fill="#02AEDE" d="M189.524,101.205V37.733l-54.643,31.835L189.524,101.205"/>
	<path fill="#16233F" d="M131.253,0v63.357l54.737-31.72L131.253,0"/>
	<path fill="#16233F" d="M69.359,31.637l54.777,31.72V0L69.359,31.637"/>
	<path fill="#16233F" d="M185.989,258.59l-54.737-31.615v63.348L185.989,258.59"/>
	<path fill="#16233F" d="M124.137,290.324v-63.354l-54.777,31.621L124.137,290.324"/>
	<path fill="#02AEDE" d="M255.005,214.686v-63.371l-54.677,31.629L255.005,214.686"/>
	<path fill="#02AEDE" d="M58.743,176.852v-63.466L3.607,145.22L58.743,176.852"/>
	<path fill="#02AEDE" d="M55.217,182.941L0,151.316v63.367L55.217,182.941"/>
	<path fill="#02AEDE" d="M255.005,139.027V75.649L200.328,107.3L255.005,139.027"/>
	<path fill="#02AEDE" d="M251.457,69.568L196.64,37.733v63.472L251.457,69.568"/>
	<path fill="#02AEDE" d="M251.457,220.775l-54.817-31.721v63.451L251.457,220.775"/>
	<path fill="#16233F" d="M189.524,252.508v-63.449l-54.643,31.721L189.524,252.508"/>
	<path fill="#02AEDE" d="M55.217,107.302L0,75.651v63.378L55.217,107.302"/>
</g>
</svg>
